<svg xmlns="http://www.w3.org/2000/svg" viewBox="0 0 128 128">
  <defs>
    <linearGradient id="bg" x1="0" y1="0" x2="1" y2="1">
      <stop offset="0" stop-color="#7c5cff"/>
      <stop offset="1" stop-color="#b18cff"/>
    </linearGradient>
  </defs>
  <rect x="4" y="4" width="120" height="120" rx="28" fill="url(#bg)"/>
  <!-- sound wave bars -->
  <g fill="#ffffff" opacity="0.35">
    <rect x="24" y="58" width="7" height="16" rx="3.5"/>
    <rect x="36" y="48" width="7" height="36" rx="3.5"/>
    <rect x="96" y="52" width="7" height="28" rx="3.5"/>
  </g>
  <!-- music note -->
  <g fill="#ffffff">
    <path d="M84 30c-1.8 0-3.4 1.2-3.9 3l-0.1 0.6v40.2c-2.3-1.7-5.3-2.8-8.5-2.8-7.5 0-13.5 5.4-13.5 12s6 12 13.5 12S85 89.6 85 82V52.6c6.5 1.6 11 6.3 11 12.4 0 2.2 1.8 4 4 4s4-1.8 4-4c0-11.5-9.3-20.3-20-21.8V34c0-2.2-1.8-4-4-4z" transform="translate(-6 2)"/>
  </g>
</svg>
